<?xml version="1.0" encoding="iso-8859-1"?>
<!-- Uploaded to: SVG Repo, www.svgrepo.com, Generator: SVG Repo Mixer Tools -->
<svg fill="#000000" height="800px" width="800px" version="1.1" id="Capa_1" xmlns="http://www.w3.org/2000/svg" xmlns:xlink="http://www.w3.org/1999/xlink" 
	 viewBox="0 0 430 430" xml:space="preserve">
<path id="XMLID_1202_" d="M418.284,85.294c-15.621-15.621-40.948-15.621-56.568,0c-9.511,9.511-13.22,22.618-11.149,34.943
	l-18.77,15.523c-3.439-0.589-5.532-2.348-9.881-6.028c-7.404-6.265-18.593-15.731-38.92-15.731s-31.516,9.467-38.92,15.731
	c-5.542,4.689-7.409,6.269-13.084,6.269c-5.673,0-7.539-1.579-13.08-6.268C210.509,123.468,199.32,114,178.995,114
	c-20.326,0-31.516,9.468-38.919,15.732c-5.54,4.688-7.407,6.268-13.08,6.268s-7.539-1.579-13.079-6.268
	c-6.771-5.73-16.733-14.117-33.932-15.511c0.167-10.45-3.726-20.954-11.7-28.928c-15.621-15.621-40.948-15.621-56.569,0
	c-15.621,15.621-15.621,40.948,0,56.569c11.419,11.419,28.022,14.48,42.231,9.204l129.671,107.241l-81.364,67.29l25.492,30.824
	L215,284.261l87.254,72.161l25.492-30.824l-81.364-67.29l129.671-107.241c14.209,5.276,30.812,2.216,42.231-9.204
	C433.905,126.241,433.905,100.915,418.284,85.294z M143.846,173.508c10.23-3.237,17.03-8.977,22.068-13.24
	c5.541-4.688,7.407-6.268,13.081-6.268c5.673,0,7.539,1.579,13.079,6.268c7.403,6.265,18.592,15.732,38.918,15.732
	c20.327,0,31.516-9.467,38.92-15.731c5.542-4.689,7.409-6.269,13.084-6.269s7.542,1.579,13.084,6.269
	c0.944,0.798,1.951,1.649,3.028,2.526L215,232.354L143.846,173.508z"/>
</svg>